<svg xmlns="http://www.w3.org/2000/svg" width="360" height="348" viewBox="0 0 360 348">
  <!-- White background -->
  <rect width="100%" height="100%" fill="#ffffff"/>
<g>
<path d="M 56.84 314.25 C56.72,316.93 56.14,319.00 55.52,319.00 C52.16,319.00 61.13,266.05 68.13,244.59 C75.23,222.78 88.29,208.78 109.34,200.43 C113.69,198.69 116.80,197.00 116.25,196.65 C115.69,196.31 112.01,195.57 108.07,195.01 C99.55,193.80 94.42,191.38 90.21,186.59 C84.89,180.52 83.51,170.37 86.61,159.93 C88.93,152.10 90.93,148.59 99.73,136.86 C108.59,125.05 111.24,119.58 112.94,109.50 C118.02,79.36 126.92,64.58 145.55,55.38 L 153.40 51.50 L 165.95 51.50 C177.71,51.50 178.83,51.67 183.72,54.25 C186.74,55.85 190.52,57.00 192.72,57.00 C198.20,57.00 207.80,61.93 212.70,67.27 C215.01,69.78 218.61,75.14 220.70,79.17 L 224.50 86.50 L 225.06 107.00 C225.70,130.30 226.10,131.90 236.60,153.28 C241.36,163.00 242.00,165.02 241.98,170.40 C241.94,181.19 236.23,189.86 226.28,194.26 C219.31,197.34 211.33,198.89 212.54,196.94 C213.11,196.02 212.84,195.85 211.58,196.33 C210.62,196.70 208.75,197.00 207.42,197.00 C206.09,197.00 205.00,197.45 205.00,198.00 C205.00,198.55 206.06,199.00 207.37,199.00 C208.67,199.00 213.05,200.65 217.12,202.68 C228.04,208.12 236.46,216.92 242.31,229.01 C246.76,238.22 253.34,258.00 254.62,266.04 C254.97,268.22 255.54,270.00 255.88,270.00 C256.22,269.99 258.67,265.72 261.33,260.50 C264.01,255.23 266.80,251.00 267.58,251.00 C269.40,251.00 269.37,250.38 266.98,239.10 C265.89,233.93 265.00,228.08 265.00,226.10 C265.00,222.36 269.55,211.60 272.27,208.87 C273.13,208.01 275.93,200.60 278.49,192.40 C281.05,184.21 283.49,176.82 283.92,176.00 C284.35,175.18 286.09,174.36 287.79,174.19 C290.38,173.93 291.15,174.38 292.46,176.93 C294.15,180.19 294.03,181.35 290.89,191.86 C288.51,199.85 288.52,201.00 291.00,201.00 C292.10,201.00 294.68,202.51 296.75,204.35 C298.81,206.19 301.71,208.00 303.18,208.35 C304.66,208.71 306.12,209.79 306.43,210.75 C306.74,211.71 308.35,213.27 310.00,214.20 C312.64,215.70 313.00,216.45 313.00,220.42 C313.00,229.05 305.75,245.73 298.47,253.82 C294.60,258.12 294.05,259.23 294.94,260.89 C295.52,261.98 296.00,264.40 296.00,266.26 C296.00,273.13 284.53,310.20 280.38,316.75 C278.30,320.04 276.68,319.51 278.44,316.12 C282.75,307.78 293.97,270.82 293.99,264.89 C294.00,262.42 293.67,262.25 288.00,261.73 C281.78,261.17 269.00,256.00 269.00,254.05 C269.00,250.24 265.63,255.86 255.40,276.75 C249.00,289.81 243.58,300.02 243.36,299.44 C243.14,298.86 245.44,293.11 248.48,286.68 C251.52,280.24 254.00,274.42 253.99,273.74 C253.96,269.05 245.81,242.45 241.10,231.65 C237.91,224.32 231.21,215.34 225.64,210.90 C219.92,206.35 209.49,201.12 204.53,200.31 C201.34,199.79 201.03,200.00 199.51,203.63 C195.49,213.28 186.65,218.14 171.95,218.79 C154.93,219.55 141.35,214.40 130.90,203.23 C127.95,200.08 126.40,198.27 124.47,197.70 C122.00,196.96 118.92,198.27 111.52,201.43 C111.02,201.64 110.50,201.86 109.95,202.09 C88.06,211.39 74.53,227.19 68.07,251.00 C63.32,268.51 57.40,301.85 56.84,314.25 ZM 156.64 215.42 C164.72,217.37 176.85,217.36 182.72,215.40 C190.33,212.85 197.23,206.66 198.15,201.55 C198.42,200.06 197.60,199.37 194.42,198.43 C185.76,195.88 181.00,192.00 181.00,187.52 C181.00,186.05 179.59,184.84 175.85,183.13 C170.43,180.64 160.82,171.49 152.48,160.88 C147.15,154.09 147.76,153.09 153.55,159.13 C162.76,168.75 180.60,176.82 189.92,175.58 C194.74,174.94 201.25,171.53 204.69,167.85 C208.45,163.82 212.86,152.87 214.46,143.62 C218.52,120.15 214.42,101.47 202.21,87.89 C199.79,85.20 197.50,83.00 197.11,83.00 C196.73,83.00 195.89,84.95 195.25,87.34 C193.80,92.79 186.47,101.11 180.64,103.93 C178.27,105.08 172.39,106.80 167.56,107.76 L 158.80 109.50 L 157.44 113.50 C155.92,117.99 151.32,122.63 147.44,123.60 C145.50,124.09 143.81,123.48 140.52,121.12 C135.14,117.26 133.62,117.23 129.92,120.92 C126.49,124.36 126.22,127.68 128.90,133.58 C131.38,139.04 135.32,142.09 138.98,141.35 C142.22,140.71 142.37,141.00 143.95,151.00 C146.11,164.60 144.69,178.32 140.36,185.79 C138.71,188.63 136.22,190.98 132.95,192.79 C130.24,194.28 128.02,195.73 128.01,196.02 C128.01,196.30 130.00,198.82 132.44,201.61 C137.56,207.46 147.72,213.25 156.64,215.42 ZM 290.53 161.55 C286.58,163.20 282.62,163.32 279.03,161.89 C275.64,160.54 275.03,159.28 275.02,153.62 C275.00,149.48 274.48,148.17 271.55,144.93 C269.66,142.83 267.60,139.24 266.98,136.94 C262.96,121.99 278.41,108.55 292.75,114.54 C297.50,116.52 299.77,118.63 302.11,123.21 C305.81,130.47 304.10,138.77 297.62,144.95 C294.26,148.14 294.00,148.82 294.00,154.25 C294.00,159.98 293.93,160.13 290.53,161.55 ZM 279.89 257.62 C286.72,260.04 292.00,260.68 292.00,259.09 C292.00,258.59 294.02,255.71 296.48,252.68 C300.25,248.06 308.00,234.53 308.00,232.58 C308.00,232.26 306.90,232.00 305.56,232.00 C304.22,232.00 302.82,231.52 302.46,230.94 C302.08,230.32 300.56,230.16 298.79,230.55 C297.01,230.94 294.81,230.70 293.45,229.97 C289.79,228.02 288.00,229.35 288.00,234.02 C288.00,237.91 285.41,244.75 284.35,243.68 C284.07,243.40 284.32,242.26 284.92,241.15 C286.13,238.88 286.31,232.58 285.36,225.64 C284.73,221.02 284.71,221.00 280.81,221.00 C278.18,221.00 277.11,220.63 277.57,219.89 C278.00,219.20 280.15,218.95 283.17,219.24 C287.53,219.66 288.30,219.43 290.09,217.16 C291.21,215.73 291.96,213.49 291.80,212.05 C291.55,209.95 290.90,209.44 288.06,209.17 C284.93,208.87 284.75,208.99 286.04,210.55 C287.35,212.13 287.12,212.19 282.98,211.45 C273.97,209.82 273.81,209.89 270.25,216.91 C268.46,220.43 267.00,224.48 267.01,225.91 C267.01,227.33 268.14,233.44 269.51,239.47 C270.88,245.50 271.75,251.20 271.46,252.14 C270.80,254.20 271.51,254.67 279.89,257.62 ZM 281.00 151.69 C283.29,152.48 284.30,152.83 285.31,152.88 C286.15,152.92 286.99,152.75 288.57,152.44 C288.67,152.42 288.77,152.40 288.88,152.38 C291.44,151.86 292.00,151.27 292.00,149.06 C292.00,147.22 292.97,145.66 295.10,144.08 C299.36,140.94 302.38,133.88 301.51,129.15 C300.02,121.11 293.21,115.08 285.57,115.02 C281.08,114.99 274.21,118.80 271.46,122.84 C267.04,129.35 268.71,140.26 274.88,145.12 C276.32,146.26 277.50,147.93 277.50,148.84 C277.50,149.84 278.89,150.97 281.00,151.69 ZM 277.75 208.31 C281.31,209.24 282.95,208.96 283.86,207.25 C285.57,204.06 291.00,184.25 291.00,181.22 C291.00,178.09 288.90,175.53 286.88,176.21 C286.04,176.49 277.19,202.20 276.04,207.68 C276.02,207.77 276.79,208.06 277.75,208.31 ZM 154.84 296.25 C155.36,314.14 155.23,319.00 154.25,319.00 C153.31,319.00 153.00,315.28 152.99,303.75 C152.97,265.90 147.16,234.37 136.95,216.60 C132.12,208.20 132.49,206.61 137.47,214.39 C148.38,231.43 153.67,256.41 154.84,296.25 ZM 220.39 317.42 C220.06,318.29 219.24,319.00 218.56,319.00 C217.60,319.00 217.61,317.65 218.61,312.75 C223.49,288.71 224.38,265.33 220.97,251.10 C219.87,246.49 219.16,242.50 219.41,242.26 C219.66,242.01 220.81,244.87 221.96,248.61 C224.39,256.47 226.36,273.40 225.61,279.99 C225.33,282.47 224.56,288.84 223.89,294.14 L 222.67 303.78 L 226.29 311.39 C228.28,315.58 229.45,319.00 228.90,319.00 C228.34,319.00 226.73,316.48 225.32,313.39 C222.66,307.58 221.05,307.50 221.02,313.17 C221.01,314.64 220.73,316.55 220.39,317.42 ZM 287.67 226.33 C288.84,227.51 292.00,227.05 292.00,225.70 C292.00,224.98 293.61,222.84 295.59,220.95 C298.88,217.78 299.13,217.14 298.68,213.03 C298.12,207.84 293.38,202.66 289.68,203.19 C286.46,203.65 286.18,207.00 289.36,207.00 C290.73,207.00 292.56,207.71 293.43,208.57 C296.14,211.29 295.32,214.92 291.00,219.24 C287.13,223.10 286.27,224.94 287.67,226.33 ZM 193.37 159.92 C188.50,163.75 181.75,161.96 178.78,156.04 C176.74,151.98 177.02,151.39 180.16,153.13 C181.55,153.89 185.64,154.38 190.22,154.33 C197.35,154.26 197.86,154.39 196.97,156.05 C196.45,157.04 194.82,158.78 193.37,159.92 ZM 100.31 315.25 C100.00,317.31 99.22,319.00 98.58,319.00 C97.73,319.00 97.89,315.73 99.18,306.75 C100.16,300.01 101.88,286.17 103.02,276.00 C104.15,265.83 105.27,256.83 105.51,256.00 C106.20,253.57 105.07,274.78 104.04,283.50 C103.51,287.90 102.59,296.00 101.98,301.50 C101.37,307.00 100.62,313.19 100.31,315.25 ZM 294.33 227.43 C294.67,228.29 295.36,229.00 295.89,229.00 C301.37,229.00 307.59,214.99 303.80,211.20 C301.71,209.11 301.00,209.88 301.00,214.21 C301.00,217.70 300.38,219.05 297.37,222.14 C295.06,224.50 293.95,226.43 294.33,227.43 ZM 281.00 160.07 C286.11,161.40 292.00,159.29 292.00,156.13 C292.00,154.78 290.79,154.50 284.96,154.49 C278.06,154.49 277.92,154.54 278.21,156.95 C278.40,158.62 279.31,159.63 281.00,160.07 ZM 303.56 229.10 C303.87,229.60 305.01,230.00 306.11,230.00 C309.74,230.00 312.66,219.06 309.80,216.20 C307.99,214.39 307.00,214.75 306.98,217.25 C306.97,218.49 306.07,221.46 304.98,223.85 C303.90,226.24 303.26,228.61 303.56,229.10 ZM 197.55 144.55 C196.07,146.02 193.97,146.98 192.30,146.96 C189.54,146.91 189.56,146.88 193.25,144.93 C197.55,142.66 198.02,140.15 195.50,133.00 C194.68,130.66 194.05,126.67 194.11,124.12 L 194.22 119.50 L 195.47 124.50 C196.15,127.25 197.45,131.65 198.36,134.28 C200.53,140.60 200.45,141.65 197.55,144.55 Z M 207.43 124.43 C206.56,125.29 205.78,125.99 205.68,125.97 C201.85,125.32 200.79,119.41 203.98,116.52 C205.60,115.05 206.24,114.95 207.48,115.98 C209.46,117.63 209.43,122.43 207.43,124.43 ZM 177.50 124.63 C175.51,127.68 173.25,127.65 171.84,124.54 C170.94,122.57 171.05,121.58 172.38,119.54 C174.53,116.27 176.79,116.30 178.05,119.63 C178.81,121.64 178.68,122.84 177.50,124.63 ZM 202.02 106.83 C200.40,108.02 198.88,109.00 198.63,109.00 C197.94,109.00 199.17,104.65 200.27,103.25 C202.35,100.59 211.00,102.43 211.00,105.54 C211.00,107.30 210.80,107.32 207.52,105.83 C205.33,104.83 204.52,104.98 202.02,106.83 ZM 286.99 101.69 C287.00,104.84 285.89,106.55 284.64,105.31 C283.66,104.33 283.88,91.00 284.87,91.00 C285.83,91.00 286.97,96.75 286.99,101.69 ZM 171.52 113.97 C170.70,115.30 169.29,115.29 168.46,113.94 C167.68,112.67 170.76,109.00 172.60,109.00 C173.31,109.00 175.15,110.16 176.69,111.57 L 179.50 114.13 L 175.83 113.54 C173.72,113.19 171.88,113.38 171.52,113.97 ZM 140.00 130.57 C140.00,134.23 138.31,133.49 137.57,129.50 C136.88,125.83 136.12,125.28 134.31,127.09 C132.70,128.70 131.53,126.28 133.04,124.46 C136.06,120.81 140.00,124.27 140.00,130.57 ZM 268.00 111.70 C268.00,114.07 266.21,113.05 262.01,108.27 C259.62,105.56 258.35,103.38 259.02,103.16 C260.43,102.69 268.00,109.88 268.00,111.70 ZM 307.48 109.02 C303.73,112.87 302.00,113.87 302.00,112.20 C302.00,110.81 309.93,103.60 310.67,104.33 C311.05,104.72 309.62,106.83 307.48,109.02 ZM 223.67 179.33 C224.84,180.50 225.00,180.09 225.00,175.94 C225.00,173.49 224.60,172.13 224.00,172.50 C222.88,173.19 222.63,178.30 223.67,179.33 Z" fill="rgb(9,36,67)"/>
<path d="M 56.84 314.25 C57.40,301.85 63.32,268.51 68.07,251.00 C74.53,227.19 88.06,211.39 109.95,202.09 C110.50,201.86 111.02,201.64 111.52,201.43 C118.92,198.27 122.00,196.96 124.47,197.70 C126.40,198.27 127.95,200.08 130.90,203.23 C141.35,214.40 154.93,219.55 171.95,218.79 C186.65,218.14 195.49,213.28 199.51,203.63 C201.03,200.00 201.34,199.79 204.53,200.31 C209.49,201.12 219.92,206.35 225.64,210.90 C231.21,215.34 237.91,224.32 241.10,231.65 C245.81,242.45 253.96,269.05 253.99,273.74 C254.00,274.42 251.52,280.24 248.48,286.68 C245.44,293.11 243.14,298.86 243.36,299.44 C243.58,300.02 249.00,289.81 255.40,276.75 C265.63,255.86 269.00,250.24 269.00,254.05 C269.00,256.00 281.78,261.17 288.00,261.73 C293.67,262.25 294.00,262.42 293.99,264.89 C293.97,270.82 282.75,307.78 278.44,316.12 C276.68,319.51 278.30,320.04 280.38,316.75 C280.62,316.36 280.90,315.87 281.19,315.28 L 279.50 319.50 L 227.83 319.50 L 225.63 314.30 C225.25,313.41 224.91,312.61 224.61,311.92 C224.84,312.36 225.08,312.85 225.32,313.39 C226.73,316.48 228.34,319.00 228.90,319.00 C229.45,319.00 228.28,315.58 226.29,311.39 L 222.67 303.78 L 223.89 294.14 C224.56,288.84 225.33,282.47 225.61,279.99 C226.36,273.40 224.39,256.47 221.96,248.61 C220.81,244.87 219.66,242.01 219.41,242.26 C219.16,242.50 219.87,246.49 220.97,251.10 C224.38,265.33 223.49,288.71 218.61,312.75 C217.61,317.65 217.60,319.00 218.56,319.00 C219.17,319.00 219.90,318.42 220.29,317.66 L 219.91 320.02 L 163.70 319.76 L 107.50 319.50 L 107.53 313.75 C107.54,310.59 107.17,308.00 106.70,308.00 C106.23,308.00 105.94,306.09 106.05,303.75 C106.17,301.41 105.99,298.83 105.66,298.00 C105.33,297.17 104.93,294.02 104.78,291.00 C104.56,286.60 104.02,288.96 102.09,302.75 L 99.69 320.00 L 54.13 320.00 L 54.54 316.75 C54.60,316.26 54.70,315.43 54.82,314.37 C54.71,317.29 54.92,319.00 55.52,319.00 C56.14,319.00 56.72,316.93 56.84,314.25 ZM 154.84 296.25 C153.67,256.41 148.38,231.43 137.47,214.39 C132.49,206.61 132.12,208.20 136.95,216.60 C147.16,234.37 152.97,265.90 152.99,303.75 C153.00,315.28 153.31,319.00 154.25,319.00 C155.23,319.00 155.36,314.14 154.84,296.25 ZM 100.31 315.25 C100.62,313.19 101.37,307.00 101.98,301.50 C102.59,296.00 103.51,287.90 104.04,283.50 C105.07,274.78 106.20,253.57 105.51,256.00 C105.27,256.83 104.15,265.83 103.02,276.00 C101.88,286.17 100.16,300.01 99.18,306.75 C97.89,315.73 97.73,319.00 98.58,319.00 C99.22,319.00 100.00,317.31 100.31,315.25 ZM 223.67 179.33 C222.63,178.30 222.88,173.19 224.00,172.50 C224.60,172.13 225.00,173.49 225.00,175.94 C225.00,180.09 224.84,180.50 223.67,179.33 ZM 68.41 243.72 C69.31,240.87 70.16,238.46 70.94,236.65 C74.26,228.89 78.83,222.11 84.59,216.33 C77.44,223.61 72.14,232.64 68.41,243.72 ZM 56.79 296.98 C57.93,288.81 59.74,279.02 61.80,269.58 C59.84,278.82 58.07,288.59 56.79,296.98 ZM 221.02 313.19 L 221.02 313.17 C221.03,310.57 221.38,309.18 222.01,309.00 C221.68,309.67 221.38,311.06 221.02,313.19 ZM 287.86 297.55 C290.66,289.02 293.39,279.58 294.87,273.11 C293.51,279.37 290.78,288.84 287.86,297.55 ZM 295.63 263.01 C295.45,262.15 295.21,261.39 294.94,260.89 C294.73,260.50 294.60,260.14 294.58,259.77 C294.62,260.20 294.80,260.62 295.07,261.12 C295.31,261.58 295.50,262.23 295.63,263.01 Z" fill="rgb(37,129,140)"/>
<path d="M 3.00 174.00 L 3.00 0.00 L 181.50 0.00 L 360.00 0.00 L 360.00 174.00 L 360.00 348.00 L 181.50 348.00 L 3.00 348.00 L 3.00 174.00 ZM 102.09 302.75 C104.02,288.96 104.56,286.60 104.78,291.00 C104.93,294.02 105.33,297.17 105.66,298.00 C105.99,298.83 106.17,301.41 106.05,303.75 C105.94,306.09 106.23,308.00 106.70,308.00 C107.17,308.00 107.54,310.59 107.53,313.75 L 107.50 319.50 L 163.70 319.76 L 219.91 320.02 L 220.51 316.26 C222.11,306.31 222.23,306.27 225.63,314.30 L 227.83 319.50 L 253.66 319.50 L 279.50 319.50 L 283.70 309.00 C288.75,296.39 294.94,275.45 295.70,268.41 C296.03,265.36 295.78,262.45 295.07,261.12 C294.02,259.16 294.39,258.36 298.47,253.82 C305.75,245.73 313.00,229.05 313.00,220.42 C313.00,216.45 312.64,215.70 310.00,214.20 C308.35,213.27 306.74,211.71 306.43,210.75 C306.12,209.79 304.66,208.71 303.18,208.35 C301.71,208.00 298.81,206.19 296.75,204.35 C294.68,202.51 292.10,201.00 291.00,201.00 C288.52,201.00 288.51,199.85 290.89,191.86 C294.03,181.35 294.15,180.19 292.46,176.93 C291.15,174.38 290.38,173.93 287.79,174.19 C286.09,174.36 284.35,175.18 283.92,176.00 C283.49,176.82 281.05,184.21 278.49,192.40 C275.93,200.60 273.13,208.01 272.27,208.87 C269.55,211.60 265.00,222.36 265.00,226.10 C265.00,228.08 265.89,233.93 266.98,239.10 C269.37,250.38 269.40,251.00 267.58,251.00 C266.80,251.00 264.01,255.23 261.33,260.50 C258.67,265.72 256.22,269.99 255.88,270.00 C255.54,270.00 254.97,268.22 254.62,266.04 C253.34,258.00 246.76,238.22 242.31,229.01 C236.46,216.92 228.04,208.12 217.12,202.68 C213.05,200.65 208.67,199.00 207.37,199.00 C206.06,199.00 205.00,198.55 205.00,198.00 C205.00,197.45 206.09,197.00 207.42,197.00 C208.75,197.00 210.62,196.70 211.58,196.33 C212.84,195.85 213.11,196.02 212.54,196.94 C211.33,198.89 219.31,197.34 226.28,194.26 C236.23,189.86 241.94,181.19 241.98,170.40 C242.00,165.02 241.36,163.00 236.60,153.28 C226.10,131.90 225.70,130.30 225.06,107.00 L 224.50 86.50 L 220.70 79.17 C218.61,75.14 215.01,69.78 212.70,67.27 C207.80,61.93 198.20,57.00 192.72,57.00 C190.52,57.00 186.74,55.85 183.72,54.25 C178.83,51.67 177.71,51.50 165.95,51.50 L 153.40 51.50 L 145.55 55.38 C126.92,64.58 118.02,79.36 112.94,109.50 C111.24,119.58 108.59,125.05 99.73,136.86 C90.93,148.59 88.93,152.10 86.61,159.93 C83.51,170.37 84.89,180.52 90.21,186.59 C94.42,191.38 99.55,193.80 108.07,195.01 C112.01,195.57 115.69,196.31 116.25,196.65 C116.80,197.00 113.69,198.69 109.34,200.43 C91.08,207.68 78.11,219.91 70.94,236.65 C66.02,248.12 58.09,283.46 56.05,303.00 C55.45,308.77 54.77,314.96 54.54,316.75 L 54.13 320.00 L 76.91 320.00 L 99.69 320.00 L 102.09 302.75 ZM 290.53 161.55 C293.93,160.13 294.00,159.98 294.00,154.25 C294.00,148.82 294.26,148.14 297.62,144.95 C304.10,138.77 305.81,130.47 302.11,123.21 C299.77,118.63 297.50,116.52 292.75,114.54 C278.41,108.55 262.96,121.99 266.98,136.94 C267.60,139.24 269.66,142.83 271.55,144.93 C274.48,148.17 275.00,149.48 275.02,153.62 C275.03,159.28 275.64,160.54 279.03,161.89 C282.62,163.32 286.58,163.20 290.53,161.55 ZM 268.00 111.70 C268.00,109.88 260.43,102.69 259.02,103.16 C258.35,103.38 259.62,105.56 262.01,108.27 C266.21,113.05 268.00,114.07 268.00,111.70 ZM 307.48 109.02 C309.62,106.83 311.05,104.72 310.67,104.33 C309.93,103.60 302.00,110.81 302.00,112.20 C302.00,113.87 303.73,112.87 307.48,109.02 ZM 286.99 101.69 C286.97,96.75 285.83,91.00 284.87,91.00 C283.88,91.00 283.66,104.33 284.64,105.31 C285.89,106.55 287.00,104.84 286.99,101.69 ZM 279.89 257.62 C271.51,254.67 270.80,254.20 271.46,252.14 C271.75,251.20 270.88,245.50 269.51,239.47 C268.14,233.44 267.01,227.33 267.01,225.91 C267.00,224.48 268.46,220.43 270.25,216.91 C273.81,209.89 273.97,209.82 282.98,211.45 C287.12,212.19 287.35,212.13 286.04,210.55 C284.75,208.99 284.93,208.87 288.06,209.17 C290.90,209.44 291.55,209.95 291.80,212.05 C291.96,213.49 291.21,215.73 290.09,217.16 C288.30,219.43 287.53,219.66 283.17,219.24 C280.15,218.95 278.00,219.20 277.57,219.89 C277.11,220.63 278.18,221.00 280.81,221.00 C284.71,221.00 284.73,221.02 285.36,225.64 C286.31,232.58 286.13,238.88 284.92,241.15 C284.32,242.26 284.07,243.40 284.35,243.68 C285.41,244.75 288.00,237.91 288.00,234.02 C288.00,229.35 289.79,228.02 293.45,229.97 C294.81,230.70 297.01,230.94 298.79,230.55 C300.56,230.16 302.08,230.32 302.46,230.94 C302.82,231.52 304.22,232.00 305.56,232.00 C306.90,232.00 308.00,232.26 308.00,232.58 C308.00,234.53 300.25,248.06 296.48,252.68 C294.02,255.71 292.00,258.59 292.00,259.09 C292.00,260.68 286.72,260.04 279.89,257.62 ZM 303.56 229.10 C303.26,228.61 303.90,226.24 304.98,223.85 C306.07,221.46 306.97,218.49 306.98,217.25 C307.00,214.75 307.99,214.39 309.80,216.20 C312.66,219.06 309.74,230.00 306.11,230.00 C305.01,230.00 303.87,229.60 303.56,229.10 ZM 294.33 227.43 C293.95,226.43 295.06,224.50 297.37,222.14 C300.38,219.05 301.00,217.70 301.00,214.21 C301.00,209.88 301.71,209.11 303.80,211.20 C307.59,214.99 301.37,229.00 295.89,229.00 C295.36,229.00 294.67,228.29 294.33,227.43 ZM 287.67 226.33 C286.27,224.94 287.13,223.10 291.00,219.24 C295.32,214.92 296.14,211.29 293.43,208.57 C292.56,207.71 290.73,207.00 289.36,207.00 C286.18,207.00 286.46,203.65 289.68,203.19 C293.38,202.66 298.12,207.84 298.68,213.03 C299.13,217.14 298.88,217.78 295.59,220.95 C293.61,222.84 292.00,224.98 292.00,225.70 C292.00,227.05 288.84,227.51 287.67,226.33 ZM 156.64 215.42 C147.72,213.25 137.56,207.46 132.44,201.61 C130.00,198.82 128.01,196.30 128.01,196.02 C128.02,195.73 130.24,194.28 132.95,192.79 C136.22,190.98 138.71,188.63 140.36,185.79 C144.69,178.32 146.11,164.60 143.95,151.00 C142.37,141.00 142.22,140.71 138.98,141.35 C135.32,142.09 131.38,139.04 128.90,133.58 C126.22,127.68 126.49,124.36 129.92,120.92 C133.62,117.23 135.14,117.26 140.52,121.12 C143.81,123.48 145.50,124.09 147.44,123.60 C151.32,122.63 155.92,117.99 157.44,113.50 L 158.80 109.50 L 167.56 107.76 C172.39,106.80 178.27,105.08 180.64,103.93 C186.47,101.11 193.80,92.79 195.25,87.34 C195.89,84.95 196.73,83.00 197.11,83.00 C197.50,83.00 199.79,85.20 202.21,87.89 C214.42,101.47 218.52,120.15 214.46,143.62 C212.86,152.87 208.45,163.82 204.69,167.85 C201.25,171.53 194.74,174.94 189.92,175.58 C180.60,176.82 162.76,168.75 153.55,159.13 C147.76,153.09 147.15,154.09 152.48,160.88 C160.82,171.49 170.43,180.64 175.85,183.13 C179.59,184.84 181.00,186.05 181.00,187.52 C181.00,192.00 185.76,195.88 194.42,198.43 C197.60,199.37 198.42,200.06 198.15,201.55 C197.23,206.66 190.33,212.85 182.72,215.40 C176.85,217.36 164.72,217.37 156.64,215.42 ZM 193.37 159.92 C194.82,158.78 196.45,157.04 196.97,156.05 C197.86,154.39 197.35,154.26 190.22,154.33 C185.64,154.38 181.55,153.89 180.16,153.13 C177.02,151.39 176.74,151.98 178.78,156.04 C181.75,161.96 188.50,163.75 193.37,159.92 ZM 197.55 144.55 C200.45,141.65 200.53,140.60 198.36,134.28 C197.45,131.65 196.15,127.25 195.47,124.50 L 194.22 119.50 L 194.11 124.12 C194.05,126.67 194.68,130.66 195.50,133.00 C198.02,140.15 197.55,142.66 193.25,144.93 C189.56,146.88 189.54,146.91 192.30,146.96 C193.97,146.98 196.07,146.02 197.55,144.55 ZM 140.00 130.57 C140.00,124.27 136.06,120.81 133.04,124.46 C131.53,126.28 132.70,128.70 134.31,127.09 C136.12,125.28 136.88,125.83 137.57,129.50 C138.31,133.49 140.00,134.23 140.00,130.57 ZM 177.50 124.63 C178.68,122.84 178.81,121.64 178.05,119.63 C176.79,116.30 174.53,116.27 172.38,119.54 C171.05,121.58 170.94,122.57 171.84,124.54 C173.25,127.65 175.51,127.68 177.50,124.63 ZM 207.43 124.43 C209.43,122.43 209.46,117.63 207.48,115.98 C206.24,114.95 205.60,115.05 203.98,116.52 C200.79,119.41 201.85,125.32 205.68,125.97 C205.78,125.99 206.56,125.29 207.43,124.43 ZM 171.52 113.97 C171.88,113.38 173.72,113.19 175.83,113.54 L 179.50 114.13 L 176.69 111.57 C175.15,110.16 173.31,109.00 172.60,109.00 C170.76,109.00 167.68,112.67 168.46,113.94 C169.29,115.29 170.70,115.30 171.52,113.97 ZM 202.02 106.83 C204.52,104.98 205.33,104.83 207.52,105.83 C210.80,107.32 211.00,107.30 211.00,105.54 C211.00,102.43 202.35,100.59 200.27,103.25 C199.17,104.65 197.94,109.00 198.63,109.00 C198.88,109.00 200.40,108.02 202.02,106.83 ZM 277.75 208.31 C276.79,208.06 276.02,207.77 276.04,207.68 C277.19,202.20 286.04,176.49 286.88,176.21 C288.90,175.53 291.00,178.09 291.00,181.22 C291.00,184.25 285.57,204.06 283.86,207.25 C282.95,208.96 281.31,209.24 277.75,208.31 ZM 281.00 160.07 C279.31,159.63 278.40,158.62 278.21,156.95 C277.92,154.54 278.06,154.49 284.96,154.49 C290.79,154.50 292.00,154.78 292.00,156.13 C292.00,159.29 286.11,161.40 281.00,160.07 ZM 281.00 151.69 C278.89,150.97 277.50,149.84 277.50,148.84 C277.50,147.93 276.32,146.26 274.88,145.12 C268.71,140.26 267.04,129.35 271.46,122.84 C274.21,118.80 281.08,114.99 285.57,115.02 C293.21,115.08 300.02,121.11 301.51,129.15 C302.38,133.88 299.36,140.94 295.10,144.08 C292.97,145.66 292.00,147.22 292.00,149.06 C292.00,151.27 291.44,151.86 288.88,152.38 C285.06,153.14 285.29,153.16 281.00,151.69 Z" fill="#f7fbfe"/>
</g>
</svg>