<?xml version="1.0" encoding="UTF-8"?>
<svg width="480" height="320" viewBox="0 0 480 320" xmlns="http://www.w3.org/2000/svg" role="img" aria-label="Person thinking with idea bulb">
  <defs>
    <linearGradient id="bgShape" x1="0" y1="0" x2="1" y2="1">
      <stop offset="0%" stop-color="#e9f4f9" />
      <stop offset="100%" stop-color="#f5fafc" />
    </linearGradient>
  </defs>
  <path d="M40 200c0-90 80-160 200-160s200 70 200 160-80 110-200 110S40 290 40 200Z" fill="url(#bgShape)"/>
  <path d="M182 214c-4 24-2 44 26 56 12 5 16 12 16 22v6h-64v-10c0-7-2-13-10-18-24-14-32-40-28-79 3-28 26-52 55-55 24-3 46 4 60 18 10 10 14 22 17 41l3 20-75 1Z" fill="#0b6070"/>
  <path d="M210 134c-26 0-46 19-46 48 0 33 18 56 46 56s46-23 46-56c0-29-20-48-46-48Z" fill="#fdfefe" stroke="#0b6070" stroke-width="4" stroke-linecap="round" stroke-linejoin="round"/>
  <path d="M192 148c4 6 10 10 18 10s14-4 18-10" stroke="#0b6070" stroke-width="4" stroke-linecap="round"/>
  <circle cx="200" cy="140" r="4" fill="#0b6070"/>
  <circle cx="224" cy="140" r="4" fill="#0b6070"/>
  <path d="M252 96c14 0 26 12 26 26s-12 26-26 26" fill="none" stroke="#0b6070" stroke-width="4" stroke-linecap="round"/>
  <path d="M252 78v14M236 90l10 10M268 90l-10 10" stroke="#0b6070" stroke-width="4" stroke-linecap="round" stroke-linejoin="round"/>
  <circle cx="304" cy="126" r="34" fill="#0f8e9e"/>
  <circle cx="304" cy="126" r="18" fill="#fdfefe"/>
  <path d="M304 110v18M304 134v6M292 126h12M308 126h8" stroke="#0f8e9e" stroke-width="3" stroke-linecap="round"/>
  <rect x="174" y="266" width="86" height="36" rx="12" fill="#084956" opacity="0.85"/>
</svg>
